<svg width="1000" height="1000" viewBox="0 0 1000 1000" fill="none" xmlns="http://www.w3.org/2000/svg">
<g clip-path="url(#clip0_7_2)">
<rect width="1000" height="1000" rx="500" fill="#E7E5E4"/>
<path d="M849.551 221.906C848.087 220.079 846.265 218.57 844.197 217.472C842.129 216.374 839.859 215.71 837.525 215.521C835.192 215.332 832.844 215.622 830.626 216.373C828.409 217.123 826.368 218.319 824.629 219.887C810.079 233.148 796.575 247.514 784.238 262.855C778.791 269.871 770.894 274.569 762.13 276.012C753.366 277.454 744.381 275.533 736.973 270.633C733.078 267.938 729.783 264.468 727.293 260.441C724.802 256.413 723.171 251.914 722.502 247.226C721.832 242.538 722.138 237.762 723.401 233.198C724.664 228.634 726.856 224.38 729.84 220.703C743.451 203.688 758.286 187.69 774.227 172.836C776.064 171.155 777.515 169.095 778.477 166.798C779.44 164.501 779.892 162.022 779.802 159.533C779.712 157.045 779.082 154.605 777.957 152.384C776.831 150.162 775.235 148.212 773.281 146.668C695.087 86.0349 598.948 53.1282 500 53.1282C401.052 53.1282 304.913 86.0349 226.719 146.668C224.765 148.212 223.169 150.162 222.043 152.384C220.918 154.605 220.288 157.045 220.198 159.533C220.108 162.022 220.56 164.501 221.523 166.798C222.485 169.095 223.936 171.155 225.773 172.836C241.439 187.43 256.043 203.125 269.473 219.801C274.894 226.394 277.732 234.734 277.455 243.266C277.178 251.797 273.806 259.936 267.969 266.164C264.569 269.672 260.462 272.415 255.919 274.21C251.376 276.006 246.503 276.812 241.624 276.577C236.745 276.341 231.972 275.068 227.624 272.843C223.276 270.617 219.451 267.491 216.406 263.672C203.851 247.996 190.072 233.341 175.199 219.844C173.458 218.285 171.418 217.098 169.203 216.355C166.988 215.612 164.644 215.328 162.316 215.521C159.987 215.714 157.723 216.38 155.66 217.478C153.598 218.576 151.781 220.083 150.32 221.906C87.3109 300.902 52.9957 398.953 52.9957 500C52.9957 601.047 87.3109 699.098 150.32 778.094C151.784 779.921 153.606 781.43 155.674 782.528C157.742 783.626 160.012 784.29 162.346 784.479C164.679 784.668 167.027 784.378 169.245 783.628C171.462 782.877 173.503 781.681 175.242 780.113C189.792 766.852 203.296 752.487 215.633 737.145C221.08 730.13 228.977 725.431 237.741 723.989C246.505 722.547 255.49 724.468 262.898 729.367C266.802 732.052 270.109 735.514 272.612 739.537C275.114 743.56 276.758 748.057 277.44 752.745C278.122 757.434 277.827 762.213 276.574 766.782C275.321 771.351 273.138 775.612 270.16 779.297C256.549 796.312 241.714 812.31 225.773 827.164C223.936 828.845 222.485 830.905 221.523 833.202C220.56 835.499 220.108 837.978 220.198 840.467C220.288 842.956 220.918 845.395 222.043 847.617C223.169 849.838 224.765 851.788 226.719 853.332C304.913 913.965 401.052 946.872 500 946.872C598.948 946.872 695.087 913.965 773.281 853.332C775.235 851.788 776.831 849.838 777.957 847.617C779.082 845.395 779.712 842.956 779.802 840.467C779.892 837.978 779.44 835.499 778.477 833.202C777.515 830.905 776.064 828.845 774.227 827.164C758.286 812.31 743.451 796.312 729.84 779.297C726.886 775.612 724.722 771.358 723.485 766.8C722.248 762.243 721.963 757.479 722.648 752.806C723.334 748.133 724.975 743.652 727.469 739.641C729.963 735.631 733.257 732.177 737.145 729.496C744.553 724.597 753.538 722.675 762.302 724.118C771.066 725.56 778.962 730.258 784.41 737.274C796.747 752.615 810.251 766.981 824.801 780.242C826.54 781.81 828.581 783.006 830.798 783.756C833.016 784.507 835.364 784.797 837.697 784.608C840.031 784.419 842.301 783.755 844.369 782.657C846.437 781.559 848.259 780.05 849.723 778.223C912.732 699.227 947.047 601.176 947.047 500.129C947.047 399.082 912.732 301.031 849.723 222.035L849.551 221.906ZM301.098 329.414C309.684 327.198 318.79 328.309 326.591 332.524C334.393 336.74 340.313 343.748 343.164 352.145C351.352 375.61 357.59 399.711 361.812 424.203C362.861 429.21 362.779 434.388 361.572 439.36C360.365 444.331 358.064 448.97 354.836 452.939C351.608 456.908 347.536 460.106 342.914 462.301C338.293 464.496 333.241 465.631 328.125 465.625C319.472 465.654 311.127 462.418 304.755 456.564C298.383 450.709 294.453 442.667 293.75 434.043C292.117 414.965 288.98 395.758 280 378.871C277.547 374.324 276.15 369.283 275.913 364.121C275.677 358.96 276.606 353.812 278.634 349.06C280.661 344.308 283.733 340.073 287.623 336.672C291.512 333.271 296.118 330.79 301.098 329.414ZM361.812 575.582C357.567 600.543 351.199 625.095 342.777 648.973C341.145 653.584 338.547 657.794 335.157 661.321C331.767 664.849 327.663 667.611 323.12 669.426C318.577 671.24 313.698 672.063 308.811 671.841C303.924 671.619 299.141 670.356 294.781 668.137C287.267 664.126 281.462 657.526 278.444 649.562C275.426 641.597 275.398 632.808 278.367 624.824C285.384 604.726 290.688 584.07 294.223 563.078C295.024 558.269 296.84 553.685 299.55 549.631C302.259 545.577 305.8 542.146 309.937 539.565C314.074 536.984 318.713 535.313 323.545 534.663C328.377 534.013 333.293 534.398 337.965 535.793C346.099 538.391 353.007 543.864 357.397 551.187C361.787 558.511 363.356 567.184 361.812 575.582ZM705.219 668.137C700.859 670.356 696.076 671.619 691.189 671.841C686.302 672.063 681.423 671.24 676.88 669.426C672.337 667.611 668.233 664.849 664.843 661.321C661.453 657.794 658.855 653.584 657.223 648.973C648.801 625.095 642.433 600.543 638.188 575.582C636.653 567.185 638.227 558.517 642.615 551.195C647.004 543.873 653.906 538.398 662.035 535.793C666.707 534.398 671.623 534.013 676.455 534.663C681.288 535.313 685.926 536.984 690.063 539.565C694.2 542.146 697.741 545.577 700.45 549.631C703.16 553.685 704.976 558.269 705.777 563.078C709.312 584.07 714.616 604.726 721.633 624.824C724.602 632.808 724.574 641.597 721.556 649.562C718.538 657.526 712.733 664.126 705.219 668.137ZM719.871 378.871C710.891 395.758 707.754 414.965 706.121 434.043C705.683 439.094 704.132 443.986 701.581 448.368C699.03 452.75 695.541 456.513 691.365 459.387C687.188 462.262 682.427 464.177 677.423 464.996C672.42 465.814 667.297 465.515 662.422 464.121C654.211 461.616 647.205 456.187 642.731 448.861C638.256 441.536 636.624 432.823 638.145 424.375C642.345 399.832 648.597 375.685 656.836 352.188C659.67 343.777 665.585 336.752 673.39 332.527C681.195 328.302 690.31 327.19 698.902 329.414C703.871 330.805 708.463 333.297 712.338 336.704C716.212 340.112 719.27 344.348 721.284 349.098C723.298 353.849 724.217 358.992 723.972 364.146C723.728 369.3 722.326 374.333 719.871 378.871Z" fill="#115E59"/>
</g>
<defs>
<clipPath id="clip0_7_2">
<rect width="1000" height="1000" rx="500" fill="white"/>
</clipPath>
</defs>
</svg>
