<svg width="1000" height="1000" viewBox="0 0 1000 1000" fill="none" xmlns="http://www.w3.org/2000/svg">
<path d="M999.999 480.007V960.001C999.999 970.609 995.61 980.783 987.796 988.284C979.982 995.786 969.384 1000 958.333 1000H41.6671C30.6165 1000 20.0184 995.786 12.2044 988.284C4.3904 980.783 0.000523618 970.609 0.000523618 960.001V480.007C-0.0384717 469.489 2.10097 459.069 6.29445 449.353C10.4879 439.636 16.6518 430.817 24.4276 423.407L441.094 23.4126C456.72 8.42124 477.908 0 500 0C522.092 0 543.28 8.42124 558.906 23.4126L975.572 423.407C983.348 430.817 989.512 439.636 993.706 449.353C997.899 459.069 1000.04 469.489 999.999 480.007Z" fill="#E7E5E4"/>
</svg>
