<svg width="1000" height="1000" viewBox="0 0 1000 1000" fill="none" xmlns="http://www.w3.org/2000/svg">
<rect width="1000" height="1000" rx="500" fill="#E5E5E5"/>
<path d="M762.5 450.125V712.625C762.5 718.427 760.196 723.991 756.093 728.093C751.991 732.195 746.427 734.5 740.625 734.5H259.375C253.574 734.5 248.01 732.195 243.907 728.093C239.805 723.991 237.5 718.427 237.5 712.625V450.125C237.48 444.373 238.603 438.675 240.805 433.361C243.006 428.047 246.242 423.224 250.324 419.172L469.074 200.422C477.278 192.223 488.402 187.618 500 187.618C511.599 187.618 522.722 192.223 530.926 200.422L749.676 419.172C753.758 423.224 756.994 428.047 759.196 433.361C761.398 438.675 762.521 444.373 762.5 450.125Z" fill="#115E59"/>
</svg>
